<svg width="34" height="34" viewBox="0 0 34 34" fill="none" xmlns="http://www.w3.org/2000/svg">
<g clip-path="url(#clip0_52_177)">
<path d="M13.8418 19.4772C12.5776 17.9706 11.6355 16.232 11.0153 14.2612C10.3951 12.2905 10.2147 10.2281 10.4741 8.07406C10.4988 7.79229 10.6132 7.56571 10.8175 7.3943C11.0218 7.22289 11.2648 7.14951 11.5466 7.17416L14.7486 7.48979C15.0069 7.51238 15.2201 7.61089 15.3882 7.78531C15.5563 7.95972 15.6472 8.17174 15.6608 8.42137L15.8396 12.057C15.8487 12.2234 15.8236 12.375 15.7643 12.5118C15.705 12.6486 15.6116 12.7705 15.4839 12.8777L13.3007 14.7096C13.5546 15.3233 13.8511 15.923 14.1902 16.5087C14.5294 17.0944 14.9239 17.6554 15.3739 18.1916C15.8238 18.7278 16.3078 19.2138 16.8257 19.6495C17.3436 20.0852 17.8827 20.4814 18.443 20.838L20.6262 19.006C20.7539 18.8989 20.8902 18.828 21.0352 18.7934C21.1802 18.7587 21.3338 18.7604 21.4961 18.7982L25.0455 19.6056C25.289 19.6624 25.482 19.7887 25.6246 19.9846C25.7672 20.1804 25.8271 20.4075 25.8045 20.6658L25.5594 23.8739C25.5347 24.1557 25.4202 24.3823 25.216 24.5537C25.0117 24.7251 24.7687 24.7985 24.4869 24.7738C22.3312 24.668 20.3342 24.1355 18.4957 23.1761C16.6572 22.2167 15.1059 20.9837 13.8418 19.4772Z" fill="#77ABB7"/>
</g>
<defs>
<clipPath id="clip0_52_177">
<rect width="24" height="24" fill="white" transform="translate(15.4269 33.812) rotate(-130)"/>
</clipPath>
</defs>
</svg>
