<svg width="24" height="22" viewBox="0 0 24 22" fill="none" xmlns="http://www.w3.org/2000/svg">
<path d="M4 18.3333C3.45 18.3333 2.975 18.1576 2.575 17.8062C2.19167 17.4395 2 17.0041 2 16.5V5.49996C2 4.99579 2.19167 4.56802 2.575 4.21663C2.975 3.84996 3.45 3.66663 4 3.66663H20C20.55 3.66663 21.0167 3.84996 21.4 4.21663C21.8 4.56802 22 4.99579 22 5.49996V16.5C22 17.0041 21.8 17.4395 21.4 17.8062C21.0167 18.1576 20.55 18.3333 20 18.3333H4ZM12 11.9166L20 7.33329V5.49996L12 10.0833L4 5.49996V7.33329L12 11.9166Z" fill="#77ABB7"/>
</svg>
